<svg width="512" height="512" viewBox="-4.5 0 160 160" fill="none" xmlns="http://www.w3.org/2000/svg" role="img" aria-label="Ancaire reverse logomark">
  <path fill="#F1F4F2" d="M32 44V84L42 91V52L75 29L108 51V90L109 91L119 84V44L76 16Z"></path>
  <path fill="#F1F4F2" d="M75 43L51 102L59 107L72 73L76 67L93 107L100 103V100L77 45Z"></path>
  <path fill="#F1F4F2" d="M28 97V115L33 114L45 126L74 143H77L97 132L112 121L118 114L122 116L123 115L122 97L108 106L111 110L103 118L85 129L81 130L80 98L75 88L71 98V129L68 130L48 118L40 110L43 106Z"></path>
</svg>